<svg width="130" height="130" viewBox="-65 -65 130 130" xmlns="http://www.w3.org/2000/svg">
<style>
  .accent { fill: #e8a630; }
  .accent-stroke { stroke: #e8a630; }
  .wave1 { fill: #e8a630; opacity: 0.9; }
  .wave2 { fill: #f0c060; opacity: 0.7; }
  .wave3 { fill: #e8a630; opacity: 0.5; }
  .ring { stroke: #e8a630; }
  .dot { fill: #e8a630; }
  .glow-ring { stroke: #f0c060; }
</style>

<circle cx="0" cy="0" r="62" class="glow-ring" fill="none" stroke-width="1.5" opacity="0.3"/>
<circle cx="0" cy="0" r="50" class="ring" fill="none" stroke-width="2" opacity="0.5"/>
<circle cx="0" cy="0" r="38" class="ring" fill="none" stroke-width="2.5"/>

<rect x="-8" y="-20" width="16" height="28" rx="8" class="accent" opacity="0.95"/>
<rect x="-1.5" y="8" width="3" height="10" rx="1.5" class="accent"/>
<path d="M-14 4 Q-14 18 0 18 Q14 18 14 4" fill="none" class="accent-stroke" stroke-width="2.5" stroke-linecap="round"/>

<g class="wave1"><rect x="-30" y="-14" width="3" height="28" rx="1.5"/></g>
<g class="wave2"><rect x="-36" y="-9" width="2.5" height="18" rx="1.25"/></g>
<g class="wave3"><rect x="-42" y="-5" width="2" height="10" rx="1"/></g>

<g class="wave1"><rect x="27" y="-14" width="3" height="28" rx="1.5"/></g>
<g class="wave2"><rect x="33.5" y="-9" width="2.5" height="18" rx="1.25"/></g>
<g class="wave3"><rect x="40" y="-5" width="2" height="10" rx="1"/></g>

<circle cx="-24" cy="-30" r="2.5" class="dot" opacity="0.5"/>
<circle cx="26" cy="-28" r="2" class="dot" opacity="0.4"/>
<circle cx="20" cy="30" r="1.8" class="dot" opacity="0.35"/>
<circle cx="-22" cy="28" r="2.2" class="dot" opacity="0.3"/>
</svg>
